:SAMPLES-PER-SECOND 30
:FRAME-RANGE 1-564
:FULLY-SPECIFIED
:DEGREES
106
root  34.3252 38.6797 152.369 -176.215 -34.4786 177.931
RightUpLeg  -19.5528 -2.93034 -4.12846
RightLeg  40.3125 -1.5113 -1.64031
RightFoot  -15.8821 0.0783763 4.69074
RightToes  1.21801e-010 1.2921e-014 -6.02303e-014
Spine  -8.14299 -2.75023 -5.49844
Spine1  10.1846 -2.83381 -1.84849
HEad  42.0984 18.3364 1.24666
LeftShoulder1  1.18442 -0.710094 -23.4879
LeftArm  -0.662721 8.26801 -49.4513
LeftForeArm  36.0665 4.38119 -13.5373
LeftHand  -0.0171763 5.67289 3.86863
RightShoulder  1.41092 0.862807 27.84
RightArm  -27.6324 -2.8784 49.8306
RightForeArm  65.4656 -5.33177 2.64862
RightHand  0.164015 -6.58602 -17.3576
LeftUpLeg  -5.30804 5.51751 -0.646635
LeftLeg  16.9955 4.25075 1.39174
LeftFoot  -14.3168 0.034641 -1.97127
LeftToes  1.70735e-010 3.74918e-011 3.68705e-011
107
root  34.1704 38.6819 151.98 -176.539 -33.8459 178.377
RightUpLeg  -20.7873 -4.682 -4.43862
RightLeg  38.964 -1.99376 -1.98755
RightFoot  -15.4095 0.0965202 5.65703
RightToes  1.21801e-010 1.2921e-014 -6.02303e-014
Spine  -7.68675 -3.31051 -5.45908
Spine1  9.73986 -3.52849 -1.25766
HEad  41.1042 17.3159 0.582026
LeftShoulder1  1.21688 -0.843228 -23.3155
LeftArm  -0.996785 8.11391 -49.8677
LeftForeArm  36.2937 4.59715 -13.4446
LeftHand  -0.00769964 5.97256 4.02155
RightShoulder  1.37976 0.733412 28.1578
RightArm  -28.1779 -4.00272 49.4704
RightForeArm  65.5878 -5.28874 2.41912
RightHand  0.152722 -6.52322 -17.1781
LeftUpLeg  -4.45401 5.77793 -0.11531
LeftLeg  17.021 4.71098 1.63936
LeftFoot  -14.8838 0.0147565 -2.40793
LeftToes  1.70735e-010 3.74918e-011 3.68705e-011
108
root  34.0214 38.6631 151.53 -176.734 -32.9388 178.744
RightUpLeg  -22.0962 -5.73895 -5.12981
RightLeg  36.3172 -2.26899 -2.03691
RightFoot  -14.2189 0.0525384 5.92926
RightToes  1.21801e-010 1.2921e-014 -6.02303e-014
Spine  -7.2599 -3.72497 -5.31995
Spine1  9.26596 -4.00193 -0.77492
HEad  40.316 16.6647 0.178837
LeftShoulder1  1.31332 -1.21883 -22.9974
LeftArm  -1.06558 8.10079 -50.2916
LeftForeArm  36.309 4.5688 -13.4367
LeftHand  -0.0132696 5.84096 3.69427
RightShoulder  1.33383 0.563742 28.4704
RightArm  -28.6278 -5.2595 49.0663
RightForeArm  64.8928 -5.28848 2.26656
RightHand  0.167796 -6.60522 -17.4367
LeftUpLeg  -3.42363 6.00833 0.410958
LeftLeg  16.7174 5.30829 1.84934
LeftFoot  -15.4379 -0.00908594 -2.84098
LeftToes  1.70735e-010 3.74918e-011 3.68705e-011
109
root  33.8748 38.6431 151.02 -176.778 -32.0233 179.044
RightUpLeg  -23.2136 -6.72707 -5.90855
RightLeg  32.4946 -2.64843 -2.04854
RightFoot  -12.5383 -0.0208834 6.147
RightToes  1.21801e-010 1.2921e-014 -6.02303e-014
Spine  -6.92413 -4.16 -5.47332
Spine1  8.87688 -4.5952 0.26528
HEad  39.398 16.53 -0.452865
LeftShoulder1  1.3774 -1.39921 -23.2617
LeftArm  -0.858519 7.83587 -50.3695
LeftForeArm  36.309 4.57372 -13.5104
LeftHand  -0.0284628 5.27697 3.60965
RightShoulder  1.19083 0.133054 28.6077
RightArm  -29.1757 -5.9115 48.6163
RightForeArm  65.2068 -5.22801 1.97561
RightHand  0.153246 -6.52044 -17.2619
LeftUpLeg  -2.33956 6.06396 0.831206
LeftLeg  16.2397 6.07471 2.20846
LeftFoot  -15.991 -0.0459563 -3.4917
LeftToes  1.70735e-010 3.74918e-011 3.68705e-011
110
root  33.7241 38.6122 150.444 -176.784 -31.0876 179.267
RightUpLeg  -24.098 -7.58911 -6.74014
RightLeg  28.0032 -3.01462 -1.95589
RightFoot  -9.78002 -0.149578 6.09202
RightToes  1.21801e-010 1.2921e-014 -6.02303e-014
Spine  -6.61748 -4.60091 -5.31776
Spine1  8.40039 -5.09506 0.885553
HEad  38.6744 16.3619 -0.682779
LeftShoulder1  1.46403 -1.67719 -23.3747
LeftArm  -0.57894 7.92148 -50.3699
LeftForeArm  36.7157 4.2883 -13.573
LeftHand  -0.0374316 4.94252 3.68628
RightShoulder  1.16381 0.0287155 28.8829
RightArm  -30.2025 -6.94514 48.1398
RightForeArm  65.3686 -5.13057 1.43405
RightHand  0.0795666 -6.02066 -17.2356
LeftUpLeg  -1.07922 5.74526 0.993728
LeftLeg  15.5892 7.24202 2.97124
LeftFoot  -16.4418 -0.0938344 -4.31711
LeftToes  1.70735e-010 3.74918e-011 3.68705e-011
